<svg width="33" height="22" viewBox="0 0 33 22" fill="none" xmlns="http://www.w3.org/2000/svg">
<path d="M13.2686 0.508209C13.7696 0.508209 14.1991 0.687152 14.5569 1.04504C14.8433 1.40292 14.9864 1.83239 14.9864 2.33343C14.9864 2.90605 14.879 3.47867 14.6643 4.05129L8.97391 18.7604C8.61603 19.4762 8.25814 20.0488 7.90025 20.4783C7.47079 20.9793 6.7908 21.2298 5.8603 21.2298L2.31722 21.2298C1.7446 21.2298 1.31514 21.0151 1.02883 20.5856C0.670943 20.1562 0.563577 19.5836 0.706732 18.8678L3.06878 3.62182C3.14036 2.76289 3.42667 2.01133 3.92771 1.36714C4.42875 0.794518 5.18032 0.508208 6.1824 0.508208L13.2686 0.508209ZM30.4471 0.50821C30.9482 0.50821 31.3776 0.687153 31.7355 1.04504C32.0218 1.40293 32.165 1.83239 32.165 2.33343C32.165 2.90605 32.0576 3.47867 31.8429 4.05129L26.1525 18.7604C25.7946 19.4762 25.4009 20.0488 24.9714 20.4783C24.542 20.9793 23.8978 21.2298 23.0389 21.2298L19.4958 21.2298C18.9232 21.2298 18.4937 21.0151 18.2074 20.5857C17.8495 20.1562 17.7421 19.5836 17.8853 18.8678L20.2473 3.62182C20.3189 2.7629 20.6052 2.01134 21.1063 1.36714C21.6073 0.794519 22.3231 0.50821 23.2536 0.50821L30.4471 0.50821Z" fill="#091242"/>
</svg>
