<svg width="50" height="56" viewBox="0 0 50 56" fill="none" xmlns="http://www.w3.org/2000/svg">
<path d="M4.27441 18.012L25.3546 29.8464L24.9848 52.7758L4.27441 40.9413V18.012Z" fill="#FFD550"/>
<path d="M25.7236 4.32837L47.1736 16.5327L37.5581 21.7103L15.7383 9.87578L25.7236 4.32837Z" fill="#FFD550"/>
<path d="M48.5643 40.7108V17.5032C48.5625 17.168 48.4724 16.8391 48.303 16.5499C48.1335 16.2606 47.8908 16.0211 47.5993 15.8556L26.8866 4.2047C26.6076 4.04357 26.291 3.95874 25.9687 3.95874C25.6464 3.95874 25.3298 4.04357 25.0507 4.2047L4.33807 15.8556C4.04656 16.0211 3.80386 16.2606 3.63443 16.5499C3.46501 16.8391 3.37485 17.168 3.37305 17.5032V40.7108C3.37485 41.046 3.46501 41.3748 3.63443 41.6641C3.80386 41.9534 4.04656 42.1929 4.33807 42.3584L25.0507 54.0093C25.3298 54.1704 25.6464 54.2552 25.9687 54.2552C26.291 54.2552 26.6076 54.1704 26.8866 54.0093L47.5993 42.3584C47.8908 42.1929 48.1335 41.9534 48.303 41.6641C48.4724 41.3748 48.5625 41.046 48.5643 40.7108V40.7108Z" stroke="#1C1F35" stroke-width="2" stroke-linecap="round" stroke-linejoin="round"/>
<path d="M37.5019 34.8734V22.6341L14.6709 10.0417" stroke="#1C1F35" stroke-width="2" stroke-linecap="round" stroke-linejoin="round"/>
<path d="M48.3053 16.5381L26.1804 29.1069L3.63184 16.5381" stroke="#1C1F35" stroke-width="2" stroke-linecap="round" stroke-linejoin="round"/>
<path d="M26.1806 29.1069L25.9688 54.2446" stroke="#1C1F35" stroke-width="2" stroke-linecap="round" stroke-linejoin="round"/>
<path d="M1.31507 13.0696L11.9502 6.91699" stroke="#1C1F35" stroke-width="2" stroke-linecap="round" stroke-linejoin="round"/>
<path d="M30.1622 1.00001L40.8027 7.14331" stroke="#1C1F35" stroke-width="2" stroke-linecap="round" stroke-linejoin="round"/>
<path d="M40.8026 41.6809L30.1621 47.8242" stroke="#1C1F35" stroke-width="2" stroke-linecap="round" stroke-linejoin="round"/>
</svg>
