<svg width="49" height="54" viewBox="0 0 49 54" fill="none" xmlns="http://www.w3.org/2000/svg">
<path d="M1.7793 20.9085V7.13001C1.7793 6.63199 1.97714 6.15436 2.3293 5.8022C2.68146 5.45004 3.15909 5.2522 3.65711 5.2522H41.2134C41.7115 5.2522 42.1891 5.45004 42.5413 5.8022C42.8934 6.15436 43.0913 6.63199 43.0913 7.13001V20.9085C43.0913 40.6256 26.3552 47.151 23.0221 48.2542C22.6434 48.3944 22.2271 48.3944 21.8485 48.2542C18.5153 47.151 1.7793 40.6256 1.7793 20.9085Z" fill="#FFD550" stroke="#1C1F35" stroke-width="2" stroke-linecap="round" stroke-linejoin="round"/>
<path d="M19.1766 50.9955C16.2373 50.073 9.02363 46.5894 2 37.5" stroke="#1C1F35" stroke-width="2" stroke-linecap="round" stroke-linejoin="round"/>
<path d="M32.7634 18.3972L18.9849 31.5419L12.1074 24.9696" stroke="#1C1F35" stroke-width="2" stroke-linecap="round" stroke-linejoin="round"/>
<path d="M27.3924 29.3095L22.4346 34.2673" stroke="white" stroke-width="2" stroke-linecap="round" stroke-linejoin="round"/>
<path d="M47.2236 5.2129L47.2236 18.4338" stroke="#1C1F35" stroke-width="2" stroke-linecap="round" stroke-linejoin="round"/>
<path d="M22.4341 1.25513L1.77637 1.25513" stroke="#1C1F35" stroke-width="2" stroke-linecap="round" stroke-linejoin="round"/>
</svg>
