<svg width="48" height="51" viewBox="0 0 48 51" fill="none" xmlns="http://www.w3.org/2000/svg">
<path d="M25.3301 38.6618C26.9202 39.7448 28.7182 40.4851 30.6099 40.8355C32.5017 41.1859 34.4456 41.1387 36.3181 40.6971C38.1906 40.2554 39.9507 39.4289 41.4865 38.2701C43.0222 37.1113 44.3 35.6456 45.2386 33.9662C46.1771 32.2868 46.7559 30.4304 46.9381 28.5151C47.1202 26.5999 46.9018 24.6677 46.2967 22.8414C45.6916 21.0152 44.7131 19.3348 43.4234 17.9073C42.1336 16.4797 40.5609 15.3362 38.8052 14.5494C38.4197 14.3556 38.1134 14.034 37.9387 13.6395C36.8155 10.9639 34.9272 8.67959 32.5107 7.07316C30.0941 5.46672 27.2569 4.60974 24.3552 4.60974C21.4534 4.60974 18.6162 5.46672 16.1997 7.07316C13.7831 8.67959 11.8948 10.9639 10.7717 13.6395C10.5969 14.034 10.2906 14.3556 9.90509 14.5494C8.14942 15.3362 6.5767 16.4797 5.28696 17.9073C3.99721 19.3348 3.01868 21.0152 2.41358 22.8414C1.80849 24.6677 1.59009 26.5999 1.77226 28.5151C1.95444 30.4304 2.53321 32.2868 3.47175 33.9662C4.4103 35.6456 5.68809 37.1113 7.22384 38.2701C8.7596 39.4289 10.5197 40.2554 12.3922 40.6971C14.2647 41.1387 16.2087 41.1859 18.1004 40.8355C19.9921 40.4851 21.7902 39.7448 23.3803 38.6618C23.6699 38.4717 24.0087 38.3704 24.3552 38.3704C24.7016 38.3704 25.0405 38.4717 25.3301 38.6618Z" fill="#FFD550" stroke="#1C1F35" stroke-width="2" stroke-linecap="round" stroke-linejoin="round"/>
<path d="M42.6694 29.6428C41.5533 32.4909 38.8091 37.2571 31.2988 37.2571" stroke="#1C1F35" stroke-width="2" stroke-linecap="round" stroke-linejoin="round"/>
<path d="M7.75607 10.4785C9.03088 7.50398 12.0054 3.25461 18.4824 1.72375" stroke="#1C1F35" stroke-width="2" stroke-linecap="round" stroke-linejoin="round"/>
<path d="M24.3545 49.667V18.4705" stroke="#1C1F35" stroke-width="2" stroke-linecap="round" stroke-linejoin="round"/>
<path d="M24.3549 32.3357L13.9561 27.1362" stroke="#1C1F35" stroke-width="2" stroke-linecap="round" stroke-linejoin="round"/>
<path d="M14.8225 24.1142L18.2129 26.0717" stroke="white" stroke-linecap="round" stroke-linejoin="round"/>
<path d="M21.333 18.1819L21.333 22.0968" stroke="#1C1F35" stroke-linecap="round" stroke-linejoin="round"/>
<path d="M27 43L27 48" stroke="#1C1F35" stroke-width="1.5" stroke-linecap="round" stroke-linejoin="round"/>
<path d="M24.3545 27.1363L34.7533 21.9369" stroke="#1C1F35" stroke-width="2" stroke-linecap="round" stroke-linejoin="round"/>
</svg>
