<svg width="56" height="39" viewBox="0 0 56 39" fill="none" xmlns="http://www.w3.org/2000/svg">
<path d="M24.8232 28.2459C32.3469 28.2459 38.4461 22.1467 38.4461 14.623C38.4461 7.09921 32.3469 1 24.8232 1C17.2994 1 11.2002 7.09921 11.2002 14.623C11.2002 22.1467 17.2994 28.2459 24.8232 28.2459Z" fill="#FFD550" stroke="#1C1F35" stroke-width="2" stroke-linecap="round" stroke-linejoin="round"/>
<path d="M5.34277 37.328C7.72964 34.4832 10.7106 32.1956 14.0761 30.6262C17.4417 29.0567 21.1101 28.2434 24.8236 28.2434C28.5371 28.2434 32.2055 29.0567 35.5711 30.6262C38.9366 32.1956 41.9176 34.4832 44.3044 37.328" stroke="#1C1F35" stroke-width="2" stroke-linecap="round" stroke-linejoin="round"/>
<path d="M51.8877 38.4629L41.6705 38.4629L41.6705 20.2989L51.8877 20.2989L51.8877 38.4629Z" fill="white" stroke="#141414" stroke-linecap="round" stroke-linejoin="round"/>
<path d="M51.8877 27.1106L41.6705 27.1106L41.6705 20.2991L51.8877 20.2991L51.8877 27.1106Z" fill="#FFD550" stroke="black" stroke-linecap="round" stroke-linejoin="round"/>
<path d="M48.4824 24.8401L45.0767 24.8401" stroke="#141414" stroke-linecap="round" stroke-linejoin="round"/>
<path d="M48.4824 30.5164L45.0767 30.5164" stroke="#141414" stroke-linecap="round" stroke-linejoin="round"/>
<path d="M55.2939 28.2458L55.2939 37.9031" stroke="#1C1F35" stroke-linecap="round" stroke-linejoin="round"/>
<path d="M6.71595 21.9802C5.84022 20.8261 3.68155 16.9857 5.35156 9.77075" stroke="#1C1F35" stroke-width="1.5" stroke-linecap="round" stroke-linejoin="round"/>
<path d="M35.2407 16.0356C35.1924 17.196 34.5511 20.6797 29.7041 24.363" stroke="#1C1F35" stroke-linecap="round" stroke-linejoin="round"/>
</svg>
