<svg width="53" height="58" viewBox="0 0 53 58" fill="none" xmlns="http://www.w3.org/2000/svg">
<rect x="11" y="28" width="6" height="6" stroke="#1C1F35" stroke-linecap="round" stroke-linejoin="round"/>
<rect x="11" y="41" width="6" height="6" stroke="#1C1F35" stroke-linecap="round" stroke-linejoin="round"/>
<rect x="24" y="28" width="6" height="6" stroke="#1C1F35" stroke-linecap="round" stroke-linejoin="round"/>
<rect x="24" y="41" width="6" height="6" stroke="#1C1F35" stroke-linecap="round" stroke-linejoin="round"/>
<rect x="36" y="28" width="6" height="6" fill="#FFD550" stroke="#1C1F35" stroke-linecap="round" stroke-linejoin="round"/>
<rect x="36" y="41" width="6" height="6" stroke="#1C1F35" stroke-linecap="round" stroke-linejoin="round"/>
<path d="M52 20H1V9C1 7.34315 2.34315 6 4 6H49C50.6569 6 52 7.34315 52 9V20Z" fill="#FFD550"/>
<path d="M50 5.66675H3.33333C2.04467 5.66675 1 6.71142 1 8.00008V54.6667C1 55.9554 2.04467 57.0001 3.33333 57.0001H50C51.2887 57.0001 52.3333 55.9554 52.3333 54.6667V8.00008C52.3333 6.71142 51.2887 5.66675 50 5.66675Z" stroke="#1C1F35" stroke-linecap="round" stroke-linejoin="round"/>
<path d="M40.667 1V10.3333" stroke="#1C1F35" stroke-linecap="round" stroke-linejoin="round"/>
<path d="M12.667 1V10.3333" stroke="#1C1F35" stroke-linecap="round" stroke-linejoin="round"/>
<path d="M1 19.6667H52.3333" stroke="#1C1F35" stroke-linecap="round" stroke-linejoin="round"/>
</svg>
