<svg width="40" height="40" viewBox="0 0 40 40" fill="none" xmlns="http://www.w3.org/2000/svg">
<path d="M33.927 11.4483H5.14132C4.52986 11.4483 4.03418 11.9269 4.03418 12.5172V27.4828C4.03418 28.0731 4.52986 28.5517 5.14132 28.5517H33.927C34.5385 28.5517 35.0342 28.0731 35.0342 27.4828V12.5172C35.0342 11.9269 34.5385 11.4483 33.927 11.4483Z" stroke="#1C1F35" stroke-width="1.5" stroke-linecap="round" stroke-linejoin="round"/>
<path d="M19.5343 24.2759C21.6007 24.2759 23.2757 22.6008 23.2757 20.5345C23.2757 18.4682 21.6007 16.7931 19.5343 16.7931C17.468 16.7931 15.793 18.4682 15.793 20.5345C15.793 22.6008 17.468 24.2759 19.5343 24.2759Z" stroke="#1C1F35" stroke-width="1.5" stroke-linecap="round" stroke-linejoin="round"/>
<path d="M26.4824 11.4483L35.0341 18.931" stroke="#1C1F35" stroke-width="1.5" stroke-linecap="round" stroke-linejoin="round"/>
<path d="M26.4824 28.5517L35.0341 21.069" stroke="#1C1F35" stroke-width="1.5" stroke-linecap="round" stroke-linejoin="round"/>
<path d="M12.5859 11.4483L4.03418 18.931" stroke="#1C1F35" stroke-width="1.5" stroke-linecap="round" stroke-linejoin="round"/>
<path d="M12.5859 28.5517L4.03418 21.069" stroke="#1C1F35" stroke-width="1.5" stroke-linecap="round" stroke-linejoin="round"/>
</svg>
