<svg width="20" height="20" viewBox="0 0 20 20" fill="none" xmlns="http://www.w3.org/2000/svg">
<path d="M18.002 0H1.79595C0.910419 0 0.136719 0.637165 0.136719 1.51229V17.7544C0.136719 18.6343 0.910419 19.4184 1.79595 19.4184H17.9973C18.8876 19.4184 19.5551 18.6291 19.5551 17.7544V1.51229C19.5603 0.637165 18.8876 0 18.002 0ZM6.15598 16.1862H3.37412V7.53675H6.15598V16.1862ZM4.86128 6.22168H4.84134C3.95104 6.22168 3.37456 5.55894 3.37456 4.72932C3.37456 3.88454 3.96621 3.23741 4.87645 3.23741C5.78668 3.23741 6.34366 3.87977 6.3636 4.72932C6.36316 5.55894 5.78668 6.22168 4.86128 6.22168ZM16.3229 16.1862H13.541V11.4568C13.541 10.3238 13.1362 9.54967 12.1297 9.54967C11.3608 9.54967 10.9057 10.0698 10.7033 10.5765C10.6274 10.7586 10.607 11.0065 10.607 11.2596V16.1862H7.82518V7.53675H10.607V8.74043C11.0119 8.16395 11.6443 7.33433 13.1158 7.33433C14.9419 7.33433 16.3233 8.53801 16.3233 11.133L16.3229 16.1862Z" fill="white"/>
</svg>
