<svg width="20" height="20" viewBox="0 0 20 20" fill="none" xmlns="http://www.w3.org/2000/svg">
<path d="M14.0759 1.59339C15.173 1.59655 16.2242 2.01731 17 2.7638C17.7757 3.51029 18.213 4.52183 18.2162 5.57752V13.5449C18.213 14.6006 17.7757 15.6122 17 16.3586C16.2242 17.1051 15.173 17.5259 14.0759 17.529H5.79618C4.69911 17.5259 3.6479 17.1051 2.87215 16.3586C2.0964 15.6122 1.65914 14.6006 1.65586 13.5449V5.57752C1.65914 4.52183 2.0964 3.51029 2.87215 2.7638C3.6479 2.01731 4.69911 1.59655 5.79618 1.59339H14.0759ZM14.0759 0H5.79618C2.60821 0 0 2.50982 0 5.57752V13.5449C0 16.6126 2.60821 19.1224 5.79618 19.1224H14.0759C17.2639 19.1224 19.8721 16.6126 19.8721 13.5449V5.57752C19.8721 2.50982 17.2639 0 14.0759 0Z" fill="white"/>
<path d="M15.3187 5.57781C15.073 5.57781 14.8329 5.50771 14.6286 5.37639C14.4244 5.24506 14.2652 5.0584 14.1712 4.84002C14.0772 4.62163 14.0526 4.38133 14.1005 4.14949C14.1484 3.91765 14.2667 3.7047 14.4404 3.53755C14.6141 3.37041 14.8354 3.25658 15.0764 3.21047C15.3173 3.16435 15.567 3.18802 15.794 3.27848C16.0209 3.36893 16.2149 3.52212 16.3513 3.71866C16.4878 3.9152 16.5607 4.14627 16.5607 4.38265C16.561 4.5397 16.5291 4.69526 16.4668 4.84042C16.4045 4.98557 16.3131 5.11746 16.1977 5.22851C16.0823 5.33955 15.9452 5.42757 15.7944 5.48752C15.6435 5.54746 15.4819 5.57814 15.3187 5.57781ZM9.93678 6.37429C10.5919 6.37429 11.2322 6.56122 11.7769 6.91143C12.3216 7.26165 12.7461 7.75942 12.9968 8.34181C13.2475 8.9242 13.3131 9.56504 13.1853 10.1833C13.0575 10.8016 12.742 11.3695 12.2788 11.8152C11.8156 12.2609 11.2254 12.5645 10.5829 12.6875C9.94045 12.8105 9.27449 12.7473 8.66927 12.5061C8.06405 12.2649 7.54676 11.8564 7.18281 11.3322C6.81887 10.8081 6.62461 10.1919 6.62461 9.5615C6.62555 8.71648 6.97481 7.90632 7.59576 7.3088C8.21671 6.71128 9.05863 6.37519 9.93678 6.37429ZM9.93678 4.78089C8.9542 4.78089 7.99368 5.06127 7.17669 5.58657C6.3597 6.11187 5.72294 6.8585 5.34692 7.73204C4.9709 8.60559 4.87252 9.56681 5.06421 10.4942C5.2559 11.4215 5.72906 12.2733 6.42385 12.9419C7.11864 13.6105 8.00386 14.0658 8.96756 14.2503C9.93127 14.4347 10.9302 14.34 11.838 13.9782C12.7457 13.6164 13.5216 13.0036 14.0675 12.2175C14.6134 11.4313 14.9048 10.507 14.9048 9.5615C14.9048 8.29361 14.3814 7.07764 13.4497 6.1811C12.518 5.28456 11.2544 4.78089 9.93678 4.78089Z" fill="white"/>
</svg>
